# xmcd
#
# Track frame offsets:
#	150
#	17612
#	34453
#	53579
#	79652
#	100296
#	119131
#	137387
#	154966
#	174865
#	193477
#	211521
#
# Disc length: 3086 seconds
#
# Revision: 0
# Processed by: cddbd v1.5.2PL0 Copyright (c) Steve Scherf et al.
# Submitted via: EZCDAudioConverter 1.2.3.1
#
DISCID=9d0c0c0c
DTITLE=呂珊 - 不朽至愛
DYEAR=2013
DGENRE=Pop
TTITLE0=沉默的眼睛
TTITLE1=痴情意外
TTITLE2=酒紅色的心
TTITLE3=孤身走我路
TTITLE4=藍月亮
TTITLE5=忘不了你
TTITLE6=一首獨唱的歌
TTITLE7=深秋立樓頭
TTITLE8=為甚麼
TTITLE9=黃沙萬里
TTITLE10=時光倒流
TTITLE11=真心 (新歌)
EXTD=
EXTT0=
EXTT1=
EXTT2=
EXTT3=
EXTT4=
EXTT5=
EXTT6=
EXTT7=
EXTT8=
EXTT9=
EXTT10=
EXTT11=
PLAYORDER=
